<?xml version="1.0" encoding="utf-8"?>
<!-- Generator: Adobe Illustrator 26.0.2, SVG Export Plug-In . SVG Version: 6.00 Build 0)  -->
<svg version="1.1" id="Calque_1" xmlns="http://www.w3.org/2000/svg" xmlns:xlink="http://www.w3.org/1999/xlink" x="0px" y="0px"
	 viewBox="0 0 512 512" style="enable-background:new 0 0 512 512;" xml:space="preserve">
<style type="text/css">
	.st0{fill:#FFFFFF;}
</style>
<path class="st0" d="M30.3,0l41.1,460.8L255.7,512l184.9-51.3L481.7,0H30.3z M387.2,208.6l-1.4,15.2l-13.3,148.8l-0.9,9.5L256,414.2
	v0l-0.3,0.1L140,382.1l-7.9-88.7h56.7l4,45.1l62.9,17l0.1,0v0l63-17l6.6-73.3H256h-0.2H129.5l-5.1-56.5h131.3h0.2h74.3l5.1-57.9H256
	v0H119.4l-5.1-56.5h141.5v0h141.6L387.2,208.6z"/>
</svg>
